<?xml version="1.0" encoding="UTF-8" standalone="no"?>
<!DOCTYPE svg PUBLIC "-//W3C//DTD SVG 1.1//EN" "http://www.w3.org/Graphics/SVG/1.1/DTD/svg11.dtd">
<svg width="100%" height="100%" viewBox="0 0 301 150" version="1.1" xmlns="http://www.w3.org/2000/svg" xmlns:xlink="http://www.w3.org/1999/xlink" xml:space="preserve" xmlns:serif="http://www.serif.com/" style="fill-rule:evenodd;clip-rule:evenodd;stroke-linejoin:round;stroke-miterlimit:2;">
    <g transform="matrix(1,0,0,1,-385,-766)">
        <g id="am-iso-white" serif:id="am iso white" transform="matrix(0.781189,0,0,0.781189,-705.385,94.0322)">
            <path d="M1508.03,1052L1424.51,1052L1424.51,1024.17L1508.03,1024.17L1508.03,996.684L1529.44,996.684L1529.44,941.007L1508.03,941.007L1508.03,968.846L1424.51,968.846L1424.51,941.007L1508.03,941.007L1508.03,913.169L1526.59,913.169C1521.11,899.13 1509.22,891.516 1490.89,890.327C1481.85,889.851 1474.06,890.386 1467.52,891.933C1460.98,893.479 1455.86,895.978 1452.17,899.428C1448.48,902.878 1445.63,906.447 1443.61,910.135C1441.58,913.823 1439.86,918.165 1438.43,923.162L1409.88,915.31C1411.78,907.934 1414.58,901.153 1418.27,894.966C1421.95,888.78 1426.89,882.772 1433.08,876.943C1439.26,871.113 1447.47,866.771 1457.7,863.916C1467.93,861.06 1479.59,859.99 1492.68,860.704C1504.34,861.417 1514.63,864.035 1523.55,868.555C1532.48,873.076 1539.43,878.727 1544.43,885.508C1549.43,892.29 1553.12,899.428 1555.5,906.923C1557.88,914.418 1559.06,922.091 1559.06,929.943L1559.06,1052L1529.8,1052C1529.8,1052 1529.92,1026.19 1529.8,1024.17L1508.03,1024.17L1508.03,1052ZM1670.06,1052L1642.22,1052L1642.22,890.684L1670.06,890.684L1670.06,863.202L1753.22,863.202L1753.22,890.684L1781.06,890.684L1781.06,1051.65L1751.44,1051.65L1751.44,890.684L1670.06,890.684L1670.06,1052ZM1424.51,968.846L1424.51,1024.17L1397.03,1024.17L1397.03,968.846L1424.51,968.846ZM1559.06,863.202L1642.22,863.202L1642.22,890.684L1559.06,890.684L1559.06,863.202Z" style="fill:white;"/>
        </g>
    </g>
</svg>
